<?xml version="1.0" encoding="utf-8"?>
<!-- Generator: Adobe Illustrator 22.1.0, SVG Export Plug-In . SVG Version: 6.00 Build 0)  -->
<svg version="1.1" id="Layer_1" xmlns="http://www.w3.org/2000/svg" xmlns:xlink="http://www.w3.org/1999/xlink" x="0px" y="0px"
	 viewBox="0 0 1296 1728" style="enable-background:new 0 0 1296 1728;" xml:space="preserve">
<style type="text/css">
	.st0{fill:#A0C4E2;stroke:#000000;stroke-width:0.75;stroke-miterlimit:10;}
	.st1{fill:#FFFFFF;}
	.st2{fill:#FCEE21;}
	.st3{fill:#EB4511;stroke:#000000;stroke-width:0.75;stroke-miterlimit:10;}
	.st4{fill:none;stroke:#A0C4E2;stroke-width:5;stroke-miterlimit:10;}
</style>
<g>
	<ellipse class="st0" cx="621.5" cy="1199.7" rx="218.9" ry="33.2"/>
	<g id="Eggs">
		<path id="Egg" class="st1" d="M772,1197.8c0.8,7.5-31.6,16.9-72.2,21.1c-40.7,4.2-74.3,1.6-75-5.9c-0.6-6.2,3.2-12.4,10.2-17.9
			c0,0,0,0,0,0c6.9-5.4,17-10.1,28.9-13.4c0,0,0,0,0,0c6.7-1.6,14.2-3,22.3-4.1c3-0.4,6.1-0.8,9.2-1.1c34.3-3.5,62.8-0.2,63.6,7.5
			c0.4,3.9,2,7.1,4,8.4c0,0,0,0,0,0c0.6,0.4,1.3,0.6,2,0.5C769.3,1194.2,771.8,1195.8,772,1197.8z"/>
		<path id="Egg_1_" class="st1" d="M514.6,1219.6c-27.8-0.4-50.2-10.4-50-22.3c0.2-11.9,22.8-21.2,50.6-20.8c23.2,0.3,44.6,2,62,4.4
			c0,0,0,0,0,0c17.2,2.4,30.6,5.7,38.1,9.3c0,0,0,0,0,0c3.3,2,5.6,4.3,6.6,6.7c0.4,0.9,0.5,1.8,0.5,2.7c-0.1,10-23.5,17.9-52.2,17.4
			c-14.5-0.2-27,0-32.3,0.4c0,0,0,0,0,0c-1.8,0.1-2.8,0.3-2.8,0.5C528.9,1219.1,521.9,1219.7,514.6,1219.6z"/>
		
			<ellipse id="yolk_1_" transform="matrix(1.478603e-02 -0.9999 0.9999 1.478603e-02 -678.3719 1707.7683)" class="st2" cx="527.4" cy="1198.1" rx="12.2" ry="26"/>
		
			<ellipse id="yolk" transform="matrix(0.9947 -0.1027 0.1027 0.9947 -118.6283 78.6408)" class="st2" cx="704.1" cy="1190.8" rx="33.6" ry="10.6"/>
	</g>
	<path id="Pan" class="st3" d="M623.4,1148c-130.8,0-237.8,11.5-244.9,26l-162.1,7.1c-8.3,0.4-14.8,5.2-14.6,10.9
		c0.2,5.6,7.2,9.9,15.5,9.5l162.6-7.2c7.3,10.6,14.6,21.2,21.9,31.8c0,12.1,99.2,21.9,221.5,21.9c122.3,0,221.5-9.8,221.5-21.9
		l22.3-47.7l1.4-2.9C868.6,1160.3,758.8,1148,623.4,1148z M623.4,1219.9c-122.5,0-221.8-13.6-221.8-30.4
		c0-16.8,99.3-30.4,221.8-30.4s221.8,13.6,221.8,30.4C845.2,1206.3,745.9,1219.9,623.4,1219.9z"/>
	<g>
		<path class="st4" d="M630.4,1128.5c-36.9-11.3-53.5-63.8-37.1-117.1c13.1-42.7,47.6-70,77.2-60.9c23.6,7.2,34.3,40.8,23.8,75
			c-8.4,27.3-30.5,44.8-49.4,39c-15.1-4.6-21.9-26.1-15.2-48c5.4-17.5,19.5-28.7,31.6-25c9.7,3,14,16.7,9.7,30.7
			c-3.4,11.2-12.5,18.3-20.2,16c-6.2-1.9-9-10.7-6.2-19.7c2.2-7.2,8-11.7,12.9-10.2"/>
		<path class="st4" d="M756.1,1123.2c-28.3-14.7-39.3-49.6-24.6-77.9c11.7-22.7,39.6-31.6,62.2-19.8c18.1,9.4,25.2,31.7,15.8,49.9
			c-7.5,14.5-25.4,20.2-39.8,12.7c-11.6-6-16.1-20.3-10.1-31.9c4.8-9.3,16.2-12.9,25.5-8.1c7.4,3.8,10.3,13,6.5,20.4
			c-3.1,5.9-10.4,8.3-16.3,5.2c-4.7-2.5-6.6-8.3-4.1-13.1c2-3.8,6.6-5.3,10.4-3.3"/>
		<path class="st4" d="M519.1,1129.6c-26.7-9.1-43.1-46.8-36.6-84.1c5.2-29.8,26.8-48.1,48.2-40.8c17.1,5.8,27.6,29.9,23.4,53.8
			c-3.3,19.1-17.1,30.8-30.8,26.1c-10.9-3.7-17.6-19.1-15-34.4c2.1-12.2,11-19.7,19.7-16.7c7,2.4,11.3,12.3,9.6,22
			c-1.4,7.8-7,12.6-12.6,10.7c-4.5-1.5-7.2-7.8-6.1-14.1c0.9-5,4.5-8.1,8.1-6.8"/>
	</g>
</g>
</svg>
